<?xml version="1.0" encoding="UTF-8" standalone="no"?>
<svg
   xmlns:dc="http://purl.org/dc/elements/1.1/"
   xmlns:cc="http://creativecommons.org/ns#"
   xmlns:rdf="http://www.w3.org/1999/02/22-rdf-syntax-ns#"
   xmlns:svg="http://www.w3.org/2000/svg"
   xmlns="http://www.w3.org/2000/svg"
   viewBox="0 0 1250 1250"
   height="1250"
   width="1250"
   xml:space="preserve"
   version="1.1"
   id="svg2"><metadata
     id="metadata8"><rdf:RDF><cc:Work
         rdf:about=""><dc:format>image/svg+xml</dc:format><dc:type
           rdf:resource="http://purl.org/dc/dcmitype/StillImage" /></cc:Work></rdf:RDF></metadata><defs
     id="defs6" /><g
     transform="matrix(1.25,0,0,-1.25,0,1250)"
     id="g10"><g
       transform="scale(0.1,0.1)"
       id="g12"><path
         id="path14"
         style="fill:#26285e;fill-opacity:1;fill-rule:nonzero;stroke:none"
         d="m 3505.36,5871.44 -325.12,0 L 2308.8,5000 3703.76,3605.05 3866.32,3767.61 2633.93,5000 l 871.43,871.44" /><path
         id="path16"
         style="fill:#ffffff;fill-opacity:1;fill-rule:nonzero;stroke:none"
         d="M 3958.9,4198.14 3157.04,5000 4389.43,6232.39 4226.87,6394.95 2831.91,5000 l 801.86,-801.86 325.13,0" /><path
         id="path18"
         style="fill:#ffffff;fill-opacity:1;fill-rule:nonzero;stroke:none"
         d="m 4117.54,4696.62 23.63,20.92 39.39,0 c 0.16,0 0.53,0.37 1.11,1.11 0.57,0.74 1.18,1.6 1.84,2.59 0.66,0.98 1.27,1.92 1.85,2.83 0.57,0.9 0.94,1.6 1.1,2.09 l 0.5,1.23 c -0.17,0.16 -0.33,0.57 -0.5,1.23 -0.49,0.82 -1.35,1.93 -2.58,3.33 -1.23,1.39 -2.01,2.09 -2.34,2.09 l -50.47,0 -13.53,-37.42 z m -21.42,70.9 112.99,0 c 4.93,0 8.99,-1.28 12.19,-3.82 3.2,-2.55 5.74,-5.66 7.63,-9.35 1.89,-3.7 3.2,-7.63 3.94,-11.82 0.74,-4.19 1.11,-7.92 1.11,-11.2 0,-6.9 -1.65,-13.22 -4.93,-18.96 -3.28,-5.74 -7.46,-10.71 -12.55,-14.89 -5.09,-4.19 -10.67,-7.43 -16.74,-9.73 -6.07,-2.3 -11.9,-3.44 -17.48,-3.44 l -69.18,0 -17.23,-47.27 -47.27,0 47.52,130.48" /><path
         id="path20"
         style="fill:#ffffff;fill-opacity:1;fill-rule:nonzero;stroke:none"
         d="m 4402.61,4767.52 c -1.15,-2.3 -3.08,-5.3 -5.79,-8.99 -2.71,-3.69 -5.58,-7.34 -8.62,-10.95 -3.03,-3.61 -5.99,-6.74 -8.86,-9.36 -2.87,-2.62 -4.96,-3.94 -6.27,-3.94 l -75.83,0 -14.03,-38.65 23.39,22.65 56.86,0 -35.2,-33.23 -48.99,0 -5.41,-14.77 94.28,0 c -0.16,-0.34 -0.58,-1.03 -1.23,-2.1 -0.66,-1.07 -1.32,-2.17 -1.97,-3.32 -0.66,-1.15 -1.32,-2.22 -1.97,-3.2 -0.66,-0.99 -1.07,-1.56 -1.23,-1.73 -1.48,-1.96 -3.49,-4.26 -6.03,-6.89 -2.55,-2.62 -5.05,-5.13 -7.51,-7.5 -2.46,-2.39 -4.64,-4.4 -6.52,-6.04 -1.89,-1.64 -2.92,-2.46 -3.08,-2.46 l -123.83,0 47.51,130.48 140.33,0" /><path
         id="path22"
         style="fill:#ffffff;fill-opacity:1;fill-rule:nonzero;stroke:none"
         d="m 4505.26,4729.85 c 0,1.31 -0.24,2.42 -0.73,3.33 -0.5,0.9 -1.73,1.35 -3.7,1.35 l -49.48,0 -14.03,-38.41 21.66,21.91 39.39,0 c 2.46,0 4.23,1.11 5.29,3.33 1.07,2.21 1.6,4.14 1.6,5.78 l 0,2.71 z m -89.11,37.67 109.79,0 c 5.91,0 10.67,-1.23 14.28,-3.69 3.61,-2.47 6.36,-5.59 8.25,-9.36 1.88,-3.78 3.11,-7.88 3.69,-12.31 0.58,-4.43 0.86,-8.54 0.86,-12.31 0,-8.37 -2.05,-15.26 -6.15,-20.68 -4.11,-5.42 -9.23,-9.72 -15.39,-12.92 -6.15,-3.2 -12.97,-5.5 -20.43,-6.89 -7.47,-1.4 -14.49,-2.34 -21.05,-2.84 l 48.25,-49.48 -52.68,0 -50.72,46.78 -2.7,-1.97 -16.25,-44.81 -47.27,0 47.52,130.48" /><path
         id="path24"
         style="fill:#ffffff;fill-opacity:1;fill-rule:nonzero;stroke:none"
         d="m 4728.55,4767.52 c -1.15,-2.3 -3.08,-5.3 -5.79,-8.99 -2.71,-3.69 -5.58,-7.34 -8.61,-10.95 -3.04,-3.61 -6,-6.74 -8.87,-9.36 -2.87,-2.62 -4.96,-3.94 -6.27,-3.94 l -75.83,0 -14.03,-38.65 23.39,22.65 56.87,0 -35.21,-33.23 -48.99,0 -17.48,-48.01 -47.02,0 47.52,130.48 140.32,0" /><path
         id="path26"
         style="fill:#ffffff;fill-opacity:1;fill-rule:nonzero;stroke:none"
         d="m 4754.64,4698.59 0,-1.48 c 0,-2.96 0.58,-6.03 1.73,-9.23 1.14,-3.2 2.7,-6.12 4.67,-8.74 1.97,-2.63 4.27,-4.76 6.9,-6.4 2.62,-1.64 5.41,-2.46 8.37,-2.46 l 20.43,0 c 1.48,0 3.69,0.69 6.65,2.09 2.95,1.39 6.11,3.24 9.47,5.54 3.37,2.29 6.57,4.88 9.6,7.75 3.04,2.87 5.3,5.7 6.77,8.49 1.48,2.3 2.38,4.11 2.71,5.42 l 0.99,2.46 c 0.32,1.64 0.49,2.38 0.49,2.22 0.16,1.31 0.29,2.66 0.37,4.06 0.08,1.39 0.12,2.83 0.12,4.31 0,2.62 -0.24,5.25 -0.74,7.88 -0.49,2.62 -1.47,4.96 -2.95,7.01 -1.48,2.05 -3.49,3.7 -6.03,4.93 -2.55,1.23 -5.87,1.84 -9.97,1.84 l -24.13,0 c -2.63,0 -5.46,-0.7 -8.49,-2.09 -3.04,-1.4 -6.03,-3.24 -8.99,-5.54 -2.95,-2.3 -5.7,-4.89 -8.24,-7.75 -2.55,-2.88 -4.56,-5.71 -6.04,-8.5 -0.82,-1.97 -1.56,-3.81 -2.21,-5.54 -0.66,-1.72 -1.07,-3.24 -1.23,-4.55 -0.17,-0.16 -0.25,-0.74 -0.25,-1.72 z m 115.95,-17.48 c -4.92,-8.54 -11,-16.05 -18.22,-22.53 -7.22,-6.48 -15.38,-11.69 -24.49,-15.63 -9.11,-3.94 -18.59,-5.91 -28.43,-5.91 l -28.81,0 c -9.03,0 -17.4,0.74 -25.11,2.22 -7.71,1.47 -14.36,3.97 -19.94,7.51 -5.58,3.52 -9.97,8.32 -13.17,14.4 -3.2,6.07 -4.8,13.7 -4.8,22.89 0,1.97 0.08,4.02 0.25,6.16 0.16,2.13 0.41,4.34 0.73,6.64 1.15,8.87 4.11,17.52 8.87,25.98 4.76,8.45 10.67,16 17.72,22.64 7.06,6.65 14.86,11.98 23.39,16.01 8.53,4.01 17.15,6.03 25.85,6.03 l 36.68,0 c 9.35,0 17.72,-0.86 25.11,-2.59 7.38,-1.72 13.7,-4.39 18.96,-8 5.25,-3.61 9.27,-8.33 12.06,-14.16 2.79,-5.82 4.18,-12.76 4.18,-20.8 0,-2.3 -0.08,-4.59 -0.24,-6.89 -0.17,-2.3 -0.49,-4.76 -0.99,-7.38 -1.47,-9.2 -4.67,-18.06 -9.6,-26.59" /><path
         id="path28"
         style="fill:#ffffff;fill-opacity:1;fill-rule:nonzero;stroke:none"
         d="m 5005,4729.85 c 0,1.31 -0.24,2.42 -0.73,3.33 -0.5,0.9 -1.73,1.35 -3.7,1.35 l -49.48,0 -14.03,-38.41 21.66,21.91 39.39,0 c 2.46,0 4.23,1.11 5.29,3.33 1.07,2.21 1.6,4.14 1.6,5.78 l 0,2.71 z m -89.11,37.67 109.79,0 c 5.91,0 10.67,-1.23 14.28,-3.69 3.61,-2.47 6.36,-5.59 8.25,-9.36 1.88,-3.78 3.11,-7.88 3.69,-12.31 0.58,-4.43 0.86,-8.54 0.86,-12.31 0,-8.37 -2.05,-15.26 -6.15,-20.68 -4.11,-5.42 -9.23,-9.72 -15.39,-12.92 -6.15,-3.2 -12.97,-5.5 -20.43,-6.89 -7.47,-1.4 -14.49,-2.34 -21.05,-2.84 l 48.25,-49.48 -52.68,0 -50.72,46.78 -2.7,-1.97 -16.25,-44.81 -47.27,0 47.52,130.48" /><path
         id="path30"
         style="fill:#ffffff;fill-opacity:1;fill-rule:nonzero;stroke:none"
         d="m 5185.21,4637.04 26.58,73.36 -66.96,-73.36 -16.98,0 -13.54,73.36 -26.59,-73.36 -47.27,0 47.52,130.48 59.57,0 12.56,-65.49 60.31,65.49 59.58,0 -47.52,-130.48 -47.26,0" /><path
         id="path32"
         style="fill:#ffffff;fill-opacity:1;fill-rule:nonzero;stroke:none"
         d="m 5321.84,4670.03 49.97,0 -8.62,57.85 -41.35,-55.39 0,-2.46 z m 55.14,-32.99 -5.17,27.82 c -0.33,-0.98 -1.52,-2.87 -3.57,-5.66 -2.05,-2.79 -4.35,-5.75 -6.89,-8.86 -2.55,-3.13 -5.05,-6 -7.51,-8.62 -2.46,-2.63 -4.27,-4.19 -5.42,-4.68 l -104.13,0 c 0.32,1.31 0.49,1.88 0.49,1.72 l 0,0.74 88.63,113.24 c 0.49,0.99 1.47,2.3 2.95,3.95 1.48,1.63 3.08,3.23 4.8,4.8 1.72,1.55 3.45,2.95 5.17,4.18 1.72,1.23 3.16,1.85 4.31,1.85 l 41.36,0 c 1.64,0 3.16,-0.91 4.55,-2.71 1.39,-1.81 2.59,-4.02 3.57,-6.65 0.99,-2.63 1.85,-5.38 2.59,-8.25 0.73,-2.87 1.35,-5.29 1.84,-7.26 l 16.25,-105.61 -43.82,0" /><path
         id="path34"
         style="fill:#ffffff;fill-opacity:1;fill-rule:nonzero;stroke:none"
         d="m 5479.63,4767.52 59.58,0 14.03,-73.37 26.83,73.37 46.78,0 -47.51,-130.48 -59.58,0 -13.78,73.36 -26.59,-73.36 -47.27,0 47.51,130.48" /><path
         id="path36"
         style="fill:#ffffff;fill-opacity:1;fill-rule:nonzero;stroke:none"
         d="m 5617.49,4697.35 c 0,7.88 1.72,16.01 5.17,24.38 3.45,8.37 8.13,15.92 14.03,22.65 5.91,6.72 12.72,12.26 20.44,16.61 7.71,4.35 15.91,6.53 24.62,6.53 l 101.67,0 c -4.77,-6.24 -9.57,-12.11 -14.41,-17.61 -4.84,-5.5 -10.13,-10.71 -15.87,-15.63 l -64.01,0 c -2.14,0 -4.39,-0.7 -6.77,-2.09 -2.38,-1.4 -4.68,-3.24 -6.89,-5.54 -2.22,-2.3 -4.23,-4.89 -6.04,-7.75 -1.8,-2.88 -3.19,-5.71 -4.18,-8.5 -1.32,-4.27 -1.97,-7.63 -1.97,-10.09 0,-3.12 0.82,-6.44 2.46,-9.97 1.64,-3.53 3.73,-6.77 6.28,-9.73 2.54,-2.95 5.33,-5.41 8.37,-7.38 3.03,-1.97 5.95,-2.95 8.74,-2.95 l 58.84,0 c -3.78,-5.58 -8.05,-11.29 -12.81,-17.11 -4.76,-5.83 -10.25,-11.2 -16.49,-16.13 l -19.7,0 c -10.17,0 -20.1,0.9 -29.78,2.71 -9.69,1.8 -18.38,4.96 -26.1,9.48 -7.71,4.51 -13.91,10.62 -18.58,18.34 -4.68,7.71 -7.02,17.48 -7.02,29.29 l 0,0.49" /><path
         id="path38"
         style="fill:#ffffff;fill-opacity:1;fill-rule:nonzero;stroke:none"
         d="m 5936.29,4767.52 c -1.15,-2.3 -3.08,-5.3 -5.78,-8.99 -2.71,-3.69 -5.59,-7.34 -8.62,-10.95 -3.04,-3.61 -5.99,-6.74 -8.86,-9.36 -2.88,-2.62 -4.97,-3.94 -6.28,-3.94 l -75.82,0 -14.03,-38.65 23.38,22.65 56.87,0 -35.2,-33.23 -49,0 -5.41,-14.77 94.29,0 c -0.17,-0.34 -0.58,-1.03 -1.24,-2.1 -0.65,-1.07 -1.31,-2.17 -1.96,-3.32 -0.66,-1.15 -1.32,-2.22 -1.97,-3.2 -0.66,-0.99 -1.07,-1.56 -1.23,-1.73 -1.48,-1.96 -3.49,-4.26 -6.04,-6.89 -2.54,-2.62 -5.04,-5.13 -7.5,-7.5 -2.47,-2.39 -4.64,-4.4 -6.53,-6.04 -1.89,-1.64 -2.91,-2.46 -3.07,-2.46 l -123.83,0 47.51,130.48 140.32,0" /><path
         id="path40"
         style="fill:#ffffff;fill-opacity:1;fill-rule:nonzero;stroke:none"
         d="m 6046.58,4670.03 49.97,0 -8.61,57.85 -41.36,-55.39 0,-2.46 z m 55.14,-32.99 -5.17,27.82 c -0.33,-0.98 -1.52,-2.87 -3.57,-5.66 -2.05,-2.79 -4.35,-5.75 -6.89,-8.86 -2.55,-3.13 -5.05,-6 -7.51,-8.62 -2.46,-2.63 -4.27,-4.19 -5.41,-4.68 l -104.14,0 c 0.33,1.31 0.49,1.88 0.49,1.72 l 0,0.74 88.63,113.24 c 0.49,0.99 1.48,2.3 2.95,3.95 1.48,1.63 3.08,3.23 4.8,4.8 1.73,1.55 3.45,2.95 5.17,4.18 1.72,1.23 3.16,1.85 4.31,1.85 l 41.36,0 c 1.64,0 3.16,-0.91 4.55,-2.71 1.4,-1.81 2.59,-4.02 3.57,-6.65 0.99,-2.63 1.85,-5.38 2.59,-8.25 0.74,-2.87 1.35,-5.29 1.84,-7.26 l 16.25,-105.61 -43.82,0" /><path
         id="path42"
         style="fill:#ffffff;fill-opacity:1;fill-rule:nonzero;stroke:none"
         d="m 6204.38,4767.52 59.57,0 14.03,-73.37 26.84,73.37 46.77,0 -47.51,-130.48 -59.58,0 -13.78,73.36 -26.59,-73.36 -47.27,0 47.52,130.48" /><path
         id="path44"
         style="fill:#ffffff;fill-opacity:1;fill-rule:nonzero;stroke:none"
         d="m 6401.07,4734.28 -23.39,-64 6.4,0 c 4.43,0 9.27,0.86 14.53,2.58 5.25,1.72 10.42,3.98 15.51,6.77 5.08,2.79 9.8,5.95 14.15,9.48 4.35,3.52 7.76,7.09 10.22,10.71 0.98,1.31 2.09,2.79 3.32,4.43 1.23,1.64 2.26,3.53 3.08,5.66 0.98,2.62 1.97,5.17 2.96,7.63 0.98,2.46 1.47,4.76 1.47,6.89 0,2.79 -0.62,5.13 -1.85,7.02 -1.23,1.89 -3.4,2.83 -6.52,2.83 l -39.88,0 z m 83.95,-38.4 c -7.06,-10.67 -14.16,-19.74 -21.3,-27.2 -7.14,-7.47 -14.85,-13.55 -23.14,-18.22 -8.29,-4.68 -17.4,-8.09 -27.32,-10.22 -9.93,-2.13 -21.3,-3.2 -34.1,-3.2 l -61.3,0 47.51,130.48 107.09,0 c 9.85,0 16.99,-2.71 21.42,-8.13 4.43,-5.41 6.65,-12.31 6.65,-20.68 0,-6.4 -1.32,-13.41 -3.94,-21.04 -2.63,-7.64 -6.49,-14.9 -11.57,-21.79" /><path
         id="path46"
         style="fill:#ffffff;fill-opacity:1;fill-rule:nonzero;stroke:none"
         d="m 6736.36,4767.52 c -1.15,-2.3 -3.08,-5.3 -5.78,-8.99 -2.71,-3.69 -5.59,-7.34 -8.62,-10.95 -3.04,-3.61 -5.99,-6.74 -8.86,-9.36 -2.88,-2.62 -4.97,-3.94 -6.28,-3.94 l -75.82,0 -14.03,-38.65 23.38,22.65 56.87,0 -35.2,-33.23 -49,0 -17.47,-48.01 -47.02,0 47.51,130.48 140.32,0" /><path
         id="path48"
         style="fill:#ffffff;fill-opacity:1;fill-rule:nonzero;stroke:none"
         d="m 6749.41,4767.52 47.26,0 -47.51,-130.48 -47.26,0 47.51,130.48" /><path
         id="path50"
         style="fill:#ffffff;fill-opacity:1;fill-rule:nonzero;stroke:none"
         d="m 6844.19,4734.28 -46.53,0 0,0.25 c 0.16,0.65 1.35,2.46 3.57,5.41 2.21,2.96 4.84,6.24 7.88,9.85 3.03,3.61 6.15,7.1 9.35,10.47 3.2,3.36 5.95,5.78 8.25,7.26 l 123.33,0 c -1.15,-2.3 -3.07,-5.3 -5.78,-8.99 -2.71,-3.69 -5.58,-7.34 -8.62,-10.95 -3.04,-3.61 -5.99,-6.74 -8.86,-9.36 -2.87,-2.62 -4.97,-3.94 -6.28,-3.94 l -29.05,0 -35.45,-97.24 -47.26,0 35.45,97.24" /><path
         id="path52"
         style="fill:#ffffff;fill-opacity:1;fill-rule:nonzero;stroke:none"
         d="m 6962.6,4767.52 59.57,0 14.04,-73.37 26.83,73.37 46.77,0 -47.51,-130.48 -59.57,0 -13.79,73.36 -26.59,-73.36 -47.26,0 47.51,130.48" /><path
         id="path54"
         style="fill:#ffffff;fill-opacity:1;fill-rule:nonzero;stroke:none"
         d="m 7273.92,4767.52 c -1.15,-2.3 -3.08,-5.3 -5.78,-8.99 -2.71,-3.69 -5.59,-7.34 -8.62,-10.95 -3.04,-3.61 -5.99,-6.74 -8.86,-9.36 -2.88,-2.62 -4.97,-3.94 -6.28,-3.94 l -75.82,0 -14.03,-38.65 23.38,22.65 56.87,0 -35.2,-33.23 -49,0 -5.41,-14.77 94.28,0 c -0.16,-0.34 -0.57,-1.03 -1.23,-2.1 -0.65,-1.07 -1.31,-2.17 -1.96,-3.32 -0.66,-1.15 -1.32,-2.22 -1.97,-3.2 -0.66,-0.99 -1.07,-1.56 -1.23,-1.73 -1.48,-1.96 -3.49,-4.26 -6.04,-6.89 -2.54,-2.62 -5.04,-5.13 -7.5,-7.5 -2.47,-2.39 -4.65,-4.4 -6.53,-6.04 -1.89,-1.64 -2.92,-2.46 -3.08,-2.46 l -123.83,0 47.52,130.48 140.32,0" /><path
         id="path56"
         style="fill:#ffffff;fill-opacity:1;fill-rule:nonzero;stroke:none"
         d="m 7356.88,4678.4 0,1.48 c 0,1.31 -0.24,2.66 -0.73,4.06 -0.5,1.39 -1.4,2.09 -2.71,2.09 l -49.24,0 c -4.92,0 -9.35,1.19 -13.29,3.57 -3.94,2.38 -7.35,5.42 -10.22,9.11 -2.87,3.69 -5.05,7.75 -6.52,12.18 -1.48,4.44 -2.22,8.78 -2.22,13.05 0,3.94 1.15,8.41 3.45,13.42 2.29,5 5.25,9.76 8.86,14.28 3.61,4.51 7.71,8.28 12.31,11.32 4.59,3.04 9.19,4.56 13.78,4.56 l 125.56,0 c -3.78,-5.59 -8.09,-11.17 -12.93,-16.74 -4.84,-5.58 -10.22,-11.17 -16.12,-16.74 l -81.24,0 c -1.81,0 -3.37,-1.24 -4.68,-3.7 -1.32,-2.46 -1.97,-4.43 -1.97,-5.91 l 0,-1.23 c 0,-0.16 0.33,-0.53 0.99,-1.1 0.65,-0.58 1.14,-1.03 1.47,-1.36 0.66,-0.66 1.6,-1.27 2.84,-1.84 1.23,-0.58 1.92,-0.87 2.09,-0.87 l 46.77,0 c 5.42,0 10.01,-1.27 13.79,-3.81 3.77,-2.55 6.85,-5.75 9.23,-9.6 2.38,-3.86 4.1,-8 5.17,-12.43 1.06,-4.44 1.6,-8.54 1.6,-12.31 l 0,-1.48 c 0,-4.27 -0.98,-8.82 -2.96,-13.66 -1.97,-4.84 -4.55,-9.32 -7.75,-13.42 -3.2,-4.11 -6.89,-7.51 -11.08,-10.22 -4.18,-2.7 -8.49,-4.06 -12.92,-4.06 l -125.55,0 c 0.82,1.64 2.5,4.27 5.04,7.88 2.54,3.61 5.25,7.26 8.13,10.95 2.87,3.7 5.53,6.98 8,9.85 2.46,2.87 3.93,4.31 4.43,4.31 l 83.7,0 c 2.46,0 3.9,0.74 4.31,2.22 0.41,1.47 0.61,3.03 0.61,4.67 l 0,1.48" /><path
         id="path58"
         style="fill:#ffffff;fill-opacity:1;fill-rule:nonzero;stroke:none"
         d="m 7519.36,4678.4 0,1.48 c 0,1.31 -0.25,2.66 -0.74,4.06 -0.49,1.39 -1.39,2.09 -2.7,2.09 l -49.24,0 c -4.92,0 -9.36,1.19 -13.3,3.57 -3.93,2.38 -7.34,5.42 -10.21,9.11 -2.87,3.69 -5.05,7.75 -6.52,12.18 -1.48,4.44 -2.22,8.78 -2.22,13.05 0,3.94 1.15,8.41 3.44,13.42 2.3,5 5.26,9.76 8.87,14.28 3.61,4.51 7.71,8.28 12.31,11.32 4.59,3.04 9.18,4.56 13.78,4.56 l 125.55,0 c -3.77,-5.59 -8.08,-11.17 -12.92,-16.74 -4.84,-5.58 -10.22,-11.17 -16.13,-16.74 l -81.23,0 c -1.81,0 -3.37,-1.24 -4.68,-3.7 -1.32,-2.46 -1.97,-4.43 -1.97,-5.91 l 0,-1.23 c 0,-0.16 0.33,-0.53 0.98,-1.1 0.66,-0.58 1.15,-1.03 1.48,-1.36 0.65,-0.66 1.6,-1.27 2.83,-1.84 1.23,-0.58 1.93,-0.87 2.09,-0.87 l 46.78,0 c 5.41,0 10.01,-1.27 13.78,-3.81 3.78,-2.55 6.86,-5.75 9.24,-9.6 2.37,-3.86 4.1,-8 5.17,-12.43 1.06,-4.44 1.6,-8.54 1.6,-12.31 l 0,-1.48 c 0,-4.27 -0.99,-8.82 -2.96,-13.66 -1.97,-4.84 -4.55,-9.32 -7.75,-13.42 -3.21,-4.11 -6.89,-7.51 -11.08,-10.22 -4.19,-2.7 -8.5,-4.06 -12.92,-4.06 l -125.56,0 c 0.82,1.64 2.5,4.27 5.05,7.88 2.54,3.61 5.25,7.26 8.13,10.95 2.86,3.7 5.53,6.98 7.99,9.85 2.47,2.87 3.94,4.31 4.44,4.31 l 83.7,0 c 2.46,0 3.89,0.74 4.31,2.22 0.4,1.47 0.61,3.03 0.61,4.67 l 0,1.48" /><path
         id="path60"
         style="fill:#26285e;fill-opacity:1;fill-rule:nonzero;stroke:none"
         d="m 4237.9,5402.96 170.45,0 -77.24,-211.28 293.85,211.28 189.97,0 -307.16,-235.25 170.45,-235.25 -189.98,0 -173.99,211.28 -77.23,-211.28 -170.45,0 171.33,470.5" /><path
         id="path62"
         style="fill:#26285e;fill-opacity:1;fill-rule:nonzero;stroke:none"
         d="m 5579.27,5051.41 180.21,0 -31.07,208.63 -149.14,-199.75 0,-8.88 z m 198.85,-118.95 -18.64,100.31 c -1.19,-3.55 -5.48,-10.36 -12.87,-20.42 -7.41,-10.07 -15.69,-20.72 -24.86,-31.96 -9.19,-11.24 -18.2,-21.6 -27.08,-31.06 -8.87,-9.48 -15.39,-15.1 -19.53,-16.87 l -375.51,0 c 1.18,4.73 1.78,6.8 1.78,6.21 l 0,2.66 319.58,408.37 c 1.77,3.54 5.33,8.28 10.66,14.2 5.32,5.91 11.09,11.68 17.31,17.31 6.21,5.62 12.42,10.65 18.64,15.09 6.21,4.44 11.38,6.66 15.53,6.66 l 149.14,0 c 5.91,0 11.39,-3.26 16.43,-9.76 5.02,-6.52 9.32,-14.52 12.87,-23.98 3.55,-9.47 6.66,-19.38 9.32,-29.73 2.66,-10.37 4.88,-19.09 6.66,-26.19 l 58.59,-380.84 -158.02,0" /><path
         id="path64"
         style="fill:#26285e;fill-opacity:1;fill-rule:nonzero;stroke:none"
         d="m 6138.54,5283.11 -167.79,0 0,0.89 c 0.59,2.36 4.89,8.88 12.88,19.53 7.99,10.66 17.45,22.49 28.41,35.51 10.94,13.01 22.19,25.6 33.73,37.73 11.54,12.12 21.44,20.86 29.74,26.19 l 444.76,0 c -4.15,-8.3 -11.1,-19.08 -20.87,-32.4 -9.76,-13.32 -20.12,-26.49 -31.07,-39.51 -10.96,-13.02 -21.61,-24.27 -31.96,-33.73 -10.36,-9.47 -17.9,-14.21 -22.63,-14.21 l -104.76,0 -127.83,-350.65 -170.45,0 127.84,350.65" /><path
         id="path66"
         style="fill:#26285e;fill-opacity:1;fill-rule:nonzero;stroke:none"
         d="m 6598.39,5154.39 0,-5.32 c 0,-10.66 2.07,-21.75 6.22,-33.29 4.13,-11.55 9.76,-22.06 16.87,-31.52 7.1,-9.47 15.38,-17.17 24.85,-23.08 9.46,-5.92 19.53,-8.88 30.18,-8.88 l 73.69,0 c 5.32,0 13.31,2.51 23.97,7.55 10.65,5.02 22.04,11.68 34.17,19.97 12.13,8.29 23.67,17.61 34.63,27.97 10.94,10.34 19.08,20.55 24.41,30.62 5.32,8.29 8.57,14.79 9.76,19.53 l 3.56,8.88 c 1.18,5.91 1.77,8.57 1.77,7.99 0.58,4.73 1.03,9.61 1.33,14.65 0.29,5.02 0.45,10.21 0.45,15.54 0,9.46 -0.89,18.93 -2.67,28.4 -1.77,9.46 -5.32,17.9 -10.65,25.3 -5.32,7.4 -12.58,13.32 -21.75,17.76 -9.18,4.44 -21.17,6.65 -35.95,6.65 l -87,0 c -9.47,0 -19.69,-2.52 -30.63,-7.54 -10.95,-5.04 -21.75,-11.69 -32.4,-19.98 -10.65,-8.29 -20.57,-17.61 -29.74,-27.96 -9.18,-10.36 -16.42,-20.57 -21.75,-30.63 -2.97,-7.1 -5.63,-13.75 -7.99,-19.97 -2.37,-6.21 -3.86,-11.69 -4.44,-16.42 -0.6,-0.6 -0.89,-2.67 -0.89,-6.22 z m 418.13,-63.03 c -17.75,-30.78 -39.66,-57.85 -65.69,-81.22 -26.05,-23.39 -55.49,-42.17 -88.33,-56.38 -32.85,-14.2 -67.03,-21.3 -102.54,-21.3 l -103.86,0 c -32.56,0 -62.74,2.66 -90.55,7.99 -27.83,5.33 -51.8,14.34 -71.91,27.08 -20.13,12.71 -35.95,30.02 -47.49,51.93 -11.54,21.89 -17.32,49.41 -17.32,82.56 0,7.1 0.3,14.49 0.89,22.19 0.59,7.68 1.48,15.67 2.67,23.97 4.13,31.96 14.79,63.17 31.96,93.66 17.15,30.47 38.46,57.7 63.91,81.67 25.44,23.96 53.56,43.19 84.34,57.7 30.76,14.5 61.83,21.75 93.21,21.75 l 132.28,0 c 33.73,0 63.91,-3.11 90.54,-9.32 26.64,-6.22 49.41,-15.84 68.36,-28.85 18.93,-13.03 33.43,-30.05 43.5,-51.05 10.06,-21.01 15.09,-46.02 15.09,-75.01 0,-8.3 -0.31,-16.58 -0.89,-24.86 -0.59,-8.29 -1.77,-17.17 -3.55,-26.63 -5.33,-33.15 -16.87,-65.11 -34.62,-95.88" /><path
         id="path68"
         style="fill:#26285e;fill-opacity:1;fill-rule:nonzero;stroke:none"
         d="m 7406.23,5081.6 0,5.33 c 0,4.72 -0.89,9.61 -2.66,14.64 -1.77,5.03 -5.03,7.55 -9.77,7.55 l -177.54,0 c -17.76,0 -33.74,4.28 -47.94,12.87 -14.21,8.57 -26.5,19.53 -36.84,32.85 -10.36,13.31 -18.2,27.96 -23.53,43.94 -5.32,15.98 -7.99,31.65 -7.99,47.05 0,14.21 4.14,30.32 12.43,48.38 8.28,18.05 18.93,35.21 31.96,51.49 13.01,16.27 27.81,29.88 44.39,40.84 16.56,10.94 33.14,16.42 49.71,16.42 l 452.75,0 c -13.62,-20.13 -29.16,-40.25 -46.61,-60.37 -17.46,-20.12 -36.84,-40.25 -58.14,-60.36 l -292.96,0 c -6.52,0 -12.14,-4.44 -16.87,-13.32 -4.74,-8.87 -7.1,-15.98 -7.1,-21.3 l 0,-4.44 c 0,-0.6 1.18,-1.93 3.55,-4 2.36,-2.08 4.14,-3.7 5.33,-4.88 2.36,-2.37 5.77,-4.59 10.21,-6.66 4.44,-2.08 6.95,-3.11 7.54,-3.11 l 168.67,0 c 19.54,0 36.1,-4.59 49.72,-13.75 13.61,-9.19 24.7,-20.73 33.29,-34.63 8.57,-13.91 14.79,-28.85 18.64,-44.83 3.84,-15.98 5.77,-30.78 5.77,-44.38 l 0,-5.33 c 0,-15.4 -3.55,-31.82 -10.65,-49.27 -7.11,-17.47 -16.43,-33.6 -27.96,-48.38 -11.55,-14.8 -24.86,-27.08 -39.95,-36.85 -15.09,-9.76 -30.63,-14.64 -46.61,-14.64 l -452.75,0 c 2.96,5.91 9.02,15.38 18.2,28.41 9.17,13.01 18.94,26.18 29.3,39.5 10.34,13.32 19.97,25.15 28.85,35.51 8.87,10.35 14.2,15.53 15.98,15.53 l 301.83,0 c 8.88,0 14.05,2.67 15.53,8 1.48,5.32 2.22,10.94 2.22,16.86 l 0,5.33" /><path
         id="path70"
         style="fill:#26285e;fill-opacity:1;fill-rule:nonzero;stroke:none"
         d="m 4984.49,5284 178.44,0 c 7.1,0 11.54,-1.63 13.31,-4.88 1.78,-3.26 2.67,-7.25 2.67,-11.99 l 0,-9.76 c 0,-5.92 -1.93,-12.87 -5.77,-20.86 -3.86,-7.99 -10.21,-11.99 -19.09,-11.99 l -142.04,0 -78.12,-79 50.6,138.48 z m 124.24,-351.54 189.13,0 -173.99,178.43 c 23.66,1.78 48.96,5.18 75.9,10.21 26.92,5.02 51.49,13.32 73.68,24.86 22.19,11.54 40.68,27.08 55.48,46.61 14.79,19.53 22.2,44.38 22.2,74.56 0,13.61 -1.04,28.41 -3.11,44.39 -2.08,15.98 -6.52,30.77 -13.31,44.39 -6.82,13.61 -16.73,24.86 -29.75,33.74 -13.02,8.87 -30.18,13.31 -51.48,13.31 l -395.94,0 -64.99,-178.47 316.18,-292.03" /></g></g></svg>